HIERARCHY
ROOT Joint1
{
	OFFSET 0.000000 0.000000 0.000000
	CHANNELS 6 Xposition Yposition Zposition Xrotation Yrotation Zrotation
	JOINT Joint2
	{
		OFFSET -0.000000 0.000000 1.456275
		CHANNELS 6 Xposition Yposition Zposition Xrotation Yrotation Zrotation
		JOINT Joint3
		{
			OFFSET -0.000000 0.000002 1.471446
			CHANNELS 6 Xposition Yposition Zposition Xrotation Yrotation Zrotation
			JOINT Joint4
			{
				OFFSET 0.625745 0.000000 0.917755
				CHANNELS 6 Xposition Yposition Zposition Xrotation Yrotation Zrotation
				JOINT Joint5
				{
					OFFSET -0.629534 0.000001 0.940221
					CHANNELS 6 Xposition Yposition Zposition Xrotation Yrotation Zrotation
					JOINT Joint6
					{
						OFFSET -0.000001 0.113772 1.960660
						CHANNELS 6 Xposition Yposition Zposition Xrotation Yrotation Zrotation
						JOINT Joint7
						{
							OFFSET -0.669733 -0.113771 0.388340
							CHANNELS 6 Xposition Yposition Zposition Xrotation Yrotation Zrotation
							End Site
							{
								OFFSET 0.005509 0.005509 0.438980
							}
						}
					}
				}
			}
		}
	}
}
MOTION
Frames: 27
Frame Time: 0.041667
0.000000 0.000000 0.000000 -0.000000 1.019410 0.030668 -0.000000 -0.000000 1.456275 -0.000000 -44.981966 -0.000000 -0.000000 0.000002 1.471446 0.000000 -1.133460 0.022646 0.625744 0.000000 0.917754 0.000004 134.965849 -0.000001 -0.629534 0.000001 0.940221 -0.000000 1.709736 -0.006100 -0.000001 0.113772 1.960660 -88.317700 89.986247 -0.008972 -0.669733 -0.113771 0.388340 -0.703491 3.566195 134.869530 
0.000000 0.000000 0.000000 -0.000000 1.019410 0.141944 -0.000000 0.000000 1.456275 -0.000000 -44.973944 -0.000000 -0.000000 0.000002 1.471446 0.000000 -1.133453 0.181342 0.625745 0.000000 0.917755 0.000004 134.800969 -0.000001 -0.629533 0.000001 0.940221 -0.000000 1.709736 0.021583 -0.000001 0.113772 1.960661 -88.296342 90.024646 0.005105 -0.669733 -0.113771 0.388340 -0.698608 3.566172 134.594629 
0.000000 0.000000 0.000000 -0.000000 1.019410 0.322465 -0.000000 0.000000 1.456275 0.000000 -44.960919 -0.000000 -0.000000 0.000002 1.471445 -0.000000 -1.133462 0.438790 0.625745 0.000000 0.917755 0.000004 134.533512 -0.000001 -0.629534 0.000001 0.940221 0.000000 1.709736 0.066492 -0.000000 0.113772 1.960660 -88.301676 90.086930 0.001395 -0.669733 -0.113771 0.388340 -0.690687 3.566085 134.148672 
0.000000 0.000000 0.000000 -0.000000 1.019410 0.568191 -0.000000 0.000000 1.456275 -0.000000 -44.943195 0.000000 -0.000000 0.000002 1.471446 -0.000000 -1.133460 0.789231 0.625744 0.000000 0.917755 0.000004 134.169436 -0.000001 -0.629534 0.000001 0.940221 0.000000 1.709736 0.127622 -0.000001 0.113772 1.960661 -88.302803 90.171727 0.000723 -0.669733 -0.113771 0.388340 -0.679907 3.565869 133.541646 
0.000000 0.000000 0.000000 -0.000000 1.019410 0.875080 -0.000000 0.000000 1.456275 0.000000 -44.921055 -0.000000 -0.000000 0.000002 1.471446 -0.000000 -1.133457 1.226899 0.625745 0.000000 0.917755 0.000003 133.714736 -0.000001 -0.629534 0.000001 0.940221 -0.000000 1.709736 0.203968 -0.000001 0.113772 1.960661 -88.303192 90.277616 0.000455 -0.669733 -0.113771 0.388340 -0.666448 3.565439 132.783508 
0.000000 0.000000 0.000000 -0.000000 1.019410 1.239093 -0.000000 0.000000 1.456275 -0.000000 -44.894803 0.000000 -0.000000 0.000002 1.471446 -0.000000 -1.133461 1.746033 0.625744 0.000000 0.917755 0.000004 133.175411 -0.000001 -0.629534 0.000001 0.940221 -0.000000 1.709736 0.294525 -0.000000 0.113772 1.960661 -88.303418 90.403223 0.000306 -0.669733 -0.113771 0.388340 -0.650493 3.564696 131.884259 
0.000000 0.000000 0.000000 -0.000000 1.019410 1.656189 -0.000000 0.000000 1.456275 0.000000 -44.864709 -0.000000 -0.000000 0.000002 1.471446 -0.000000 -1.133462 2.340870 0.625745 0.000000 0.917755 0.000003 132.557429 -0.000001 -0.629534 0.000001 0.940221 0.000000 1.709737 0.398288 0.000000 0.113772 1.960661 -88.303534 90.547142 0.000222 -0.669733 -0.113771 0.388340 -0.632228 3.563540 130.853898 
0.000000 0.000000 0.000000 -0.000000 1.019410 2.122326 -0.000000 0.000000 1.456275 -0.000000 -44.831087 -0.000000 -0.000001 0.000002 1.471445 -0.000000 -1.133462 3.005649 0.625745 0.000000 0.917755 0.000003 131.866788 -0.000001 -0.629534 0.000001 0.940221 -0.000000 1.709737 0.514251 -0.000001 0.113772 1.960660 -88.303623 90.707979 0.000168 -0.669733 -0.113771 0.388339 -0.611845 3.561860 129.702369 
0.000000 0.000000 0.000000 -0.000000 1.019410 2.633464 -0.000000 -0.000000 1.456275 0.000000 -44.794204 -0.000000 -0.000001 0.000002 1.471445 0.000000 -1.133459 3.734604 0.625745 0.000000 0.917755 0.000003 131.109497 -0.000001 -0.629534 0.000001 0.940221 0.000000 1.709737 0.641410 -0.000001 0.113772 1.960661 -88.303670 90.884355 0.000132 -0.669733 -0.113771 0.388340 -0.589537 3.559547 128.439672 
0.000000 0.000000 0.000000 -0.000000 1.019410 3.189111 -0.000000 0.000000 1.456275 0.000000 -44.754125 0.000000 -0.000000 0.000002 1.471446 0.000000 -1.133459 4.527035 0.625745 0.000000 0.917755 0.000003 130.286214 -0.000001 -0.629533 0.000001 0.940221 -0.000000 1.709737 0.779640 -0.000000 0.113772 1.960661 -88.303711 91.076085 0.000131 -0.669733 -0.113771 0.388341 -0.565351 3.556478 127.067036 
0.000000 0.000000 0.000000 -0.000000 1.019410 3.802961 -0.000000 0.000000 1.456275 -0.000000 -44.709848 0.000000 -0.000000 0.000002 1.471446 -0.000000 -1.133462 5.402474 0.625745 0.000000 0.917754 0.000003 129.376733 -0.000001 -0.629534 0.000001 0.940221 0.000001 1.709736 0.932350 -0.000001 0.113772 1.960661 -88.303739 91.287896 0.000080 -0.669733 -0.113771 0.388340 -0.538727 3.552416 125.550625 
0.000000 0.000000 0.000000 -0.000000 1.019410 4.492260 -0.000000 0.000000 1.456275 0.000000 -44.660121 -0.000000 -0.000000 0.000002 1.471446 -0.000000 -1.133458 6.385512 0.625745 0.000000 0.917755 0.000003 128.355456 -0.000000 -0.629534 0.000001 0.940221 0.000000 1.709736 1.103830 -0.000001 0.113772 1.960660 -88.303732 91.525751 0.000094 -0.669733 -0.113771 0.388341 -0.508970 3.547017 123.847859 
0.000000 0.000000 0.000000 -0.000000 1.019410 5.274250 -0.000000 -0.000000 1.456275 0.000000 -44.603703 0.000000 -0.000000 0.000002 1.471446 0.000000 -1.133455 7.500742 0.625745 0.000000 0.917754 0.000003 127.196837 -0.000001 -0.629534 0.000001 0.940221 0.000001 1.709738 1.298370 -0.000001 0.113772 1.960660 -88.303786 91.795577 0.000078 -0.669733 -0.113771 0.388340 -0.475423 3.539830 121.916117 
0.000000 0.000000 0.000000 -0.000000 1.019410 6.150111 -0.000000 0.000000 1.456275 0.000001 -44.540521 0.000000 -0.000001 0.000002 1.471445 -0.000000 -1.133459 8.749842 0.625744 0.000000 0.917755 0.000003 125.899156 -0.000003 -0.629534 0.000001 0.940221 -0.000000 1.709738 1.516261 -0.000001 0.113772 1.960661 -88.303793 92.097799 0.000078 -0.669733 -0.113771 0.388340 -0.438164 3.530443 119.752505 
0.000000 0.000000 0.000000 -0.000000 1.019410 7.056755 -0.000000 0.000000 1.456275 0.000000 -44.475115 0.000000 -0.000000 0.000002 1.471446 0.000000 -1.133458 10.042849 0.625745 0.000000 0.917755 0.000003 124.555835 0.000000 -0.629533 0.000001 0.940221 0.000000 1.709738 1.741812 -0.000001 0.113772 1.960660 -88.303766 92.410636 0.000043 -0.669733 -0.113771 0.388339 -0.399997 3.519254 117.512886 
0.000000 0.000000 0.000000 -0.000000 1.019410 7.915035 -0.000000 -0.000000 1.456275 0.000000 -44.413203 -0.000001 -0.000000 0.000002 1.471446 -0.000000 -1.133458 11.266880 0.625744 0.000000 0.917755 0.000003 123.284191 0.000000 -0.629534 0.000001 0.940220 -0.000001 1.709735 1.955330 -0.000000 0.113772 1.960661 -88.303821 92.706793 0.000058 -0.669733 -0.113771 0.388341 -0.364298 3.507299 115.392781 
0.000000 0.000000 0.000000 -0.000000 1.019410 8.688307 -0.000000 0.000000 1.456275 -0.000000 -44.357424 -0.000001 -0.000000 0.000002 1.471446 0.000001 -1.133456 12.369672 0.625745 0.000000 0.917755 0.000004 122.138508 0.000002 -0.629534 0.000001 0.940221 -0.000001 1.709737 2.147700 -0.000001 0.113772 1.960661 -88.303834 92.973614 0.000077 -0.669733 -0.113771 0.388339 -0.332531 3.495406 113.482691 
0.000000 0.000000 0.000000 -0.000000 1.019410 9.509940 -0.000000 0.000000 1.456275 -0.000000 -44.298148 -0.000001 -0.000000 0.000002 1.471446 -0.000000 -1.133458 13.541441 0.625745 0.000000 0.917755 0.000005 120.921150 0.000000 -0.629534 0.000001 0.940221 -0.000001 1.709736 2.352100 -0.000001 0.113772 1.960660 -88.303855 93.257122 0.000043 -0.669733 -0.113771 0.388340 -0.299236 3.481617 111.453176 
0.000000 0.000000 0.000000 -0.000000 1.019410 10.555823 -0.000000 -0.000000 1.456275 -0.000000 -44.222702 -0.000001 -0.000000 0.000002 1.471446 0.000001 -1.133454 15.033014 0.625745 0.000000 0.917755 -0.000003 119.371544 0.000000 -0.629534 0.000001 0.940221 0.000001 1.709737 2.612291 -0.000001 0.113772 1.960661 -88.303834 93.618008 0.000046 -0.669733 -0.113771 0.388340 -0.257594 3.462380 108.869793 
0.000000 0.000000 0.000000 -0.000000 1.019410 11.898425 -0.000000 0.000000 1.456275 -0.000000 -44.125843 -0.000001 -0.000001 0.000002 1.471446 0.000001 -1.133459 16.947757 0.625745 0.000000 0.917755 0.000003 117.382320 -0.000004 -0.629534 0.000001 0.940221 -0.000002 1.709733 2.946294 -0.000000 0.113772 1.960660 -88.303855 94.081286 -0.000012 -0.669733 -0.113771 0.388339 -0.205492 3.434969 105.553607 
0.000000 0.000000 0.000000 -0.000000 1.019410 13.196608 -0.000000 0.000000 1.456275 0.000000 -44.032201 0.000000 -0.000000 0.000002 1.471445 -0.000000 -1.133458 18.799157 0.625745 0.000000 0.917755 0.000001 115.458911 -0.000002 -0.629534 0.000001 0.940221 0.000001 1.709735 3.269251 -0.000001 0.113772 1.960661 -88.303855 94.529224 -0.000004 -0.669733 -0.113771 0.388340 -0.156704 3.405651 102.347256 
0.000000 0.000000 0.000000 -0.000000 1.019410 14.133909 -0.000000 0.000000 1.456275 -0.000001 -43.964579 -0.000000 -0.000000 0.000002 1.471446 0.000000 -1.133456 20.135879 0.625745 0.000000 0.917755 0.000014 114.070177 -0.000004 -0.629534 0.000001 0.940221 0.000001 1.709735 3.502428 -0.000000 0.113772 1.960660 -88.303834 94.852647 0.000035 -0.669733 -0.113771 0.388341 -0.122542 3.382811 100.032314 
0.000000 0.000000 0.000000 -0.000000 1.019410 14.906191 -0.000000 -0.000000 1.456275 0.000001 -43.908879 0.000000 -0.000000 0.000002 1.471446 0.000000 -1.133460 21.237261 0.625745 0.000000 0.917755 0.000008 112.925949 -0.000002 -0.629534 0.000001 0.940221 -0.000002 1.709734 3.694549 -0.000000 0.113772 1.960660 -88.303862 95.119120 -0.000005 -0.669733 -0.113771 0.388339 -0.095104 3.362970 98.124991 
0.000000 0.000000 0.000000 -0.000000 1.019410 15.837394 -0.000000 -0.000000 1.456275 -0.000001 -43.841700 0.000003 -0.000000 0.000002 1.471446 -0.000000 -1.133456 22.565289 0.625745 0.000000 0.917755 0.000014 111.546265 -0.000007 -0.629534 0.000001 0.940221 0.000001 1.709734 3.926208 -0.000001 0.113772 1.960660 -88.303855 95.440439 0.000014 -0.669733 -0.113771 0.388339 -0.062927 3.337854 95.825245 
0.000000 0.000000 0.000000 -0.000000 1.019410 17.127195 -0.000000 0.000000 1.456275 0.000000 -43.748656 0.000002 -0.000000 0.000002 1.471445 0.000000 -1.133456 24.404729 0.625745 0.000000 0.917756 0.000008 109.635273 -0.000010 -0.629533 0.000001 0.940221 0.000002 1.709737 4.247079 -0.000001 0.113772 1.960660 -88.303862 95.885501 0.000026 -0.669733 -0.113771 0.388340 -0.020078 3.300972 92.640000 
0.000000 0.000000 0.000000 -0.000000 1.019410 18.478182 -0.000000 0.000000 1.456275 0.000001 -43.651193 0.000002 -0.000000 0.000002 1.471446 -0.000000 -1.133456 26.331428 0.625744 0.000000 0.917755 0.000010 107.633625 -0.000009 -0.629534 0.000001 0.940221 0.000001 1.709735 4.583168 -0.000001 0.113772 1.960660 -88.303855 96.351662 0.000045 -0.669734 -0.113771 0.388339 0.022524 3.259853 89.303822 
0.000000 0.000000 0.000000 -0.000000 1.019410 19.558945 -0.000000 -0.000000 1.456275 0.000001 -43.573236 -0.000001 -0.000000 0.000002 1.471446 -0.000002 -1.133456 27.872752 0.625744 0.000000 0.917755 0.000010 106.032342 -0.000003 -0.629534 0.000001 0.940221 0.000001 1.709735 4.852037 -0.000000 0.113772 1.960660 -88.303862 96.724583 0.000024 -0.669733 -0.113771 0.388340 0.054835 3.225225 86.635062 
